# xmcd CD database file
#
# Track frame offsets:
#	183
#	3790
#	23588
#	45250
#	68745
#	89568
#	98970
#	121163
#	143583
#	163438
#	178998
#	196748
#	215438
#
# Disc length: 2978 seconds
#
# Revision: 0
# Processed by: cddbd v1.5.1PL2 Copyright (c) Steve Scherf et al.
# Submitted via: CDex 1.51
#
DISCID=a70ba00d
DTITLE=Jeremy Wall - Stepping to the New World
DYEAR=1900
DGENRE=Jazz
TTITLE0=Inception
TTITLE1=Stepping Out
TTITLE2=Passages
TTITLE3=Tralfamadore
TTITLE4=Reunion
TTITLE5=One Life
TTITLE6=New World Anthem
TTITLE7=Fly Away
TTITLE8=Two Hearts True
TTITLE9=Dream Tango
TTITLE10=Things Change
TTITLE11=Expectatons
TTITLE12=Future Primitive
EXTD=
EXTT0=
EXTT1=
EXTT2=
EXTT3=
EXTT4=
EXTT5=
EXTT6=
EXTT7=
EXTT8=
EXTT9=
EXTT10=
EXTT11=
EXTT12=
PLAYORDER=
